<?xml version="1.0" encoding="utf-8"?>
<!-- Generator: Adobe Illustrator 23.0.0, SVG Export Plug-In . SVG Version: 6.00 Build 0)  -->
<svg version="1.1" id="Livello_1" xmlns="http://www.w3.org/2000/svg" xmlns:xlink="http://www.w3.org/1999/xlink" x="0px" y="0px"
	 viewBox="0 0 611.4 150.5" style="enable-background:new 0 0 611.4 150.5;" xml:space="preserve">
<style type="text/css">
	.st0{fill:#02CCBC;}
</style>
<g>
	<path class="st0" d="M129.4,7.1c-5.1-3.7-11.1-5.7-17.5-5.7H33.4C17.2,1.3,4,14.6,4,30.8v88.9c0,16.2,13.2,29.5,29.5,29.5h78.5
		c6.4,0,12.4-2,17.5-5.7c10.6-7.9,16.5-19.3,16.5-32.1c0-20.7-9.2-29.3-18.3-35l-1.3-0.8l1.3-0.8c8.5-5.5,18.3-14.4,18.3-35.5
		C145.9,26.3,140.1,15,129.4,7.1z M116.1,62.7c-0.8,0.5-1.5,0.9-2.2,1.4c-0.7,0.4-1.3,0.8-1.9,1.2l-0.5,0.3l-0.5-0.3
		c-5.5-3.1-16.1-8.4-37.8-18.8c-9.8-4.7-21.6-3.5-29.9,3.1c-11.5,9.1-11.8,24-11.8,25.6c0,1.7,0.3,16.5,11.8,25.6
		c8.3,6.5,19.6,7.7,29.7,3.1c20.8-9.5,32.2-14.9,38-18.3l0.5-0.3l0.5,0.3c0.5,0.3,1,0.6,1.5,1c1,0.7,2.1,1.3,3.2,2
		c7.2,4.4,13,7.8,13,22.7c0,7.8-3.4,14.2-10,19.1c-2.3,1.7-5,2.6-7.8,2.6H33.4c-7.3,0-13.3-6-13.3-13.3V30.8c0-7.3,6-13.3,13.3-13.3
		h78.5c2.9,0,5.6,0.9,7.8,2.6c6.6,4.9,10,11.3,10,19.1C129.8,54.5,123.1,58.5,116.1,62.7z M95.7,75.5l-1.8,0.9
		c-6.1,3-15.2,7.2-27.6,12.9c-1.9,0.9-3.9,1.3-5.8,1.3c-2.7,0-5.2-0.8-7.2-2.4c-5.1-4-5.6-11.3-5.7-12.7l0-0.4
		c0.1-1.5,0.6-8.8,5.7-12.8c3.5-2.7,8.6-3.2,12.9-1.2c12.9,6.1,21.7,10.4,27.7,13.5L95.7,75.5z"/>
	<g>
		<path class="st0" d="M200,110.5V39.2h15v30.1l-1,15.3l0.3,15.4v10.6H200z M230.5,111.3c-4.5,0-8.5-1-11.7-2.9
			c-3.3-1.9-5.8-4.8-7.5-8.8s-2.6-8.9-2.6-14.9c0-6.1,0.9-11.1,2.7-15c1.8-3.9,4.4-6.8,7.6-8.7c3.3-1.9,7.1-2.9,11.4-2.9
			c4.9,0,9.2,1.1,13.1,3.3c3.9,2.2,6.9,5.3,9.2,9.2c2.3,4,3.4,8.7,3.4,14.1c0,5.4-1.1,10.1-3.4,14c-2.3,4-5.3,7.1-9.2,9.3
			C239.8,110.1,235.4,111.3,230.5,111.3z M228,99c2.5,0,4.7-0.6,6.7-1.7c2-1.2,3.5-2.8,4.7-4.9c1.2-2.1,1.8-4.7,1.8-7.6
			c0-3-0.6-5.6-1.8-7.7c-1.2-2.1-2.8-3.7-4.7-4.9c-2-1.2-4.2-1.7-6.7-1.7c-2.5,0-4.7,0.6-6.7,1.7c-2,1.2-3.6,2.8-4.7,4.9
			s-1.7,4.7-1.7,7.7c0,2.9,0.6,5.5,1.7,7.6c1.2,2.1,2.7,3.8,4.7,4.9C223.2,98.4,225.5,99,228,99z"/>
		<path class="st0" d="M290.9,111.3c-5.5,0-10.4-1.2-14.6-3.5c-4.3-2.3-7.6-5.5-10.1-9.5c-2.5-4-3.7-8.6-3.7-13.7
			c0-5.2,1.2-9.8,3.7-13.8c2.5-4,5.8-7.1,10.1-9.4c4.3-2.3,9.1-3.4,14.6-3.4c5.4,0,10.3,1.1,14.6,3.4c4.3,2.3,7.7,5.4,10.1,9.4
			c2.4,4,3.6,8.6,3.6,13.8c0,5.1-1.2,9.7-3.6,13.7c-2.4,4-5.8,7.2-10.1,9.5C301.2,110.1,296.3,111.3,290.9,111.3z M290.9,99
			c2.5,0,4.7-0.6,6.7-1.7c2-1.2,3.6-2.8,4.7-4.9c1.2-2.1,1.7-4.7,1.7-7.6c0-3-0.6-5.6-1.7-7.7s-2.7-3.7-4.7-4.9
			c-2-1.2-4.2-1.7-6.7-1.7c-2.5,0-4.7,0.6-6.7,1.7c-2,1.2-3.6,2.8-4.8,4.9c-1.2,2.1-1.8,4.7-1.8,7.7c0,2.9,0.6,5.5,1.8,7.6
			c1.2,2.1,2.8,3.8,4.8,4.9C286.1,98.4,288.4,99,290.9,99z"/>
		<path class="st0" d="M353.8,111.3c-5.5,0-10.4-1.2-14.6-3.5c-4.3-2.3-7.6-5.5-10.1-9.5c-2.5-4-3.7-8.6-3.7-13.7
			c0-5.2,1.2-9.8,3.7-13.8c2.5-4,5.8-7.1,10.1-9.4c4.3-2.3,9.1-3.4,14.6-3.4c5.4,0,10.3,1.1,14.6,3.4c4.3,2.3,7.7,5.4,10.1,9.4
			c2.4,4,3.6,8.6,3.6,13.8c0,5.1-1.2,9.7-3.6,13.7c-2.4,4-5.8,7.2-10.1,9.5S359.2,111.3,353.8,111.3z M353.8,99
			c2.5,0,4.7-0.6,6.7-1.7c2-1.2,3.6-2.8,4.7-4.9c1.2-2.1,1.7-4.7,1.7-7.6c0-3-0.6-5.6-1.7-7.7s-2.7-3.7-4.7-4.9
			c-2-1.2-4.2-1.7-6.7-1.7c-2.5,0-4.7,0.6-6.7,1.7c-2,1.2-3.6,2.8-4.8,4.9c-1.2,2.1-1.8,4.7-1.8,7.7c0,2.9,0.6,5.5,1.8,7.6
			c1.2,2.1,2.8,3.8,4.8,4.9C349,98.4,351.3,99,353.8,99z"/>
		<path class="st0" d="M392.1,110.5V39.2h15v71.3H392.1z"/>
		<path class="st0" d="M421,110.5V39.2h15v30.1l-1,15.3l0.3,15.4v10.6H421z M451.5,111.3c-4.5,0-8.5-1-11.7-2.9
			c-3.3-1.9-5.8-4.8-7.5-8.8s-2.6-8.9-2.6-14.9c0-6.1,0.9-11.1,2.7-15c1.8-3.9,4.4-6.8,7.6-8.7c3.3-1.9,7.1-2.9,11.4-2.9
			c4.9,0,9.2,1.1,13.1,3.3c3.9,2.2,6.9,5.3,9.2,9.2c2.3,4,3.4,8.7,3.4,14.1c0,5.4-1.1,10.1-3.4,14c-2.3,4-5.3,7.1-9.2,9.3
			C460.7,110.1,456.4,111.3,451.5,111.3z M448.9,99c2.5,0,4.7-0.6,6.7-1.7c2-1.2,3.5-2.8,4.7-4.9c1.2-2.1,1.8-4.7,1.8-7.6
			c0-3-0.6-5.6-1.8-7.7c-1.2-2.1-2.8-3.7-4.7-4.9c-2-1.2-4.2-1.7-6.7-1.7s-4.7,0.6-6.7,1.7c-2,1.2-3.6,2.8-4.7,4.9s-1.7,4.7-1.7,7.7
			c0,2.9,0.6,5.5,1.7,7.6c1.2,2.1,2.7,3.8,4.7,4.9C444.2,98.4,446.4,99,448.9,99z"/>
		<path class="st0" d="M518.6,58c4.1,0,7.8,0.8,11,2.4c3.2,1.6,5.8,4.1,7.6,7.5c1.9,3.4,2.8,7.7,2.8,12.9v29.6h-15V83.2
			c0-4.2-0.9-7.2-2.7-9.2c-1.8-2-4.4-3-7.7-3c-2.4,0-4.5,0.5-6.4,1.5c-1.9,1-3.4,2.5-4.4,4.6c-1.1,2-1.6,4.7-1.6,7.9v25.5h-15V58.8
			h14.3v14.3l-2.7-4.3c1.9-3.5,4.5-6.1,8-8C510.3,59,514.2,58,518.6,58z"/>
		<path class="st0" d="M553.6,110.5V39.2h15v30.1l-1,15.3l0.3,15.4v10.6H553.6z M584.1,111.3c-4.5,0-8.5-1-11.7-2.9
			c-3.3-1.9-5.8-4.8-7.5-8.8s-2.6-8.9-2.6-14.9c0-6.1,0.9-11.1,2.7-15c1.8-3.9,4.4-6.8,7.6-8.7c3.3-1.9,7.1-2.9,11.4-2.9
			c4.9,0,9.2,1.1,13.1,3.3c3.9,2.2,6.9,5.3,9.2,9.2c2.3,4,3.4,8.7,3.4,14.1c0,5.4-1.1,10.1-3.4,14c-2.3,4-5.3,7.1-9.2,9.3
			C593.4,110.1,589,111.3,584.1,111.3z M581.5,99c2.5,0,4.7-0.6,6.7-1.7c2-1.2,3.5-2.8,4.7-4.9c1.2-2.1,1.8-4.7,1.8-7.6
			c0-3-0.6-5.6-1.8-7.7c-1.2-2.1-2.8-3.7-4.7-4.9c-2-1.2-4.2-1.7-6.7-1.7s-4.7,0.6-6.7,1.7c-2,1.2-3.6,2.8-4.7,4.9s-1.7,4.7-1.7,7.7
			c0,2.9,0.6,5.5,1.7,7.6c1.2,2.1,2.7,3.8,4.7,4.9C576.8,98.4,579,99,581.5,99z"/>
	</g>
</g>
</svg>
